<svg width="20" height="19" viewBox="0 0 20 19" fill="none" xmlns="http://www.w3.org/2000/svg">
<path d="M15.3357 13.37C15.1795 13.3703 15.0282 13.3159 14.9079 13.2163L11.8863 10.696H10.6562C9.23786 10.696 7.87757 10.1326 6.87462 9.12962C5.87168 8.12668 5.30823 6.76639 5.30823 5.34801C5.30823 3.92963 5.87168 2.56934 6.87462 1.5664C7.87757 0.56345 9.23786 0 10.6562 0H14.6672C15.9662 0.00370918 17.2195 0.480078 18.193 1.34016C19.1664 2.20024 19.7936 3.38523 19.9573 4.67386C20.1211 5.9625 19.8102 7.26668 19.0828 8.34289C18.3553 9.4191 17.261 10.1938 16.0042 10.5222V12.7015C16.0046 12.8294 15.9682 12.9547 15.8995 13.0625C15.8308 13.1703 15.7326 13.2562 15.6165 13.3099C15.5284 13.35 15.4326 13.3705 15.3357 13.37V13.37ZM10.6562 1.337C9.59245 1.337 8.57224 1.75959 7.82003 2.5118C7.06782 3.26401 6.64523 4.28422 6.64523 5.34801C6.64523 6.4118 7.06782 7.43201 7.82003 8.18422C8.57224 8.93643 9.59245 9.35902 10.6562 9.35902H12.1269C12.2831 9.35871 12.4345 9.41311 12.5548 9.51277L14.6672 11.2709V9.97404C14.6656 9.81182 14.7231 9.65457 14.8289 9.53157C14.9346 9.40858 15.0815 9.32824 15.2422 9.30554C16.2301 9.14364 17.1217 8.61816 17.7419 7.83235C18.3622 7.04653 18.6661 6.05719 18.5941 5.0587C18.522 4.0602 18.0792 3.12474 17.3526 2.4361C16.626 1.74745 15.6682 1.35541 14.6672 1.337H10.6562Z" fill="#5811EE"/>
<path d="M13.3302 4.6795H11.9932V6.01651H13.3302V4.6795Z" fill="#5811EE"/>
<path d="M9.98773 4.6795H8.65073V6.01651H9.98773V4.6795Z" fill="#5811EE"/>
<path d="M16.6728 4.6795H15.3358V6.01651H16.6728V4.6795Z" fill="#5811EE"/>
<path d="M4.63973 18.718C4.54289 18.7186 4.44709 18.698 4.35896 18.6579C4.24292 18.6042 4.14472 18.5183 4.076 18.4105C4.00727 18.3027 3.97092 18.1774 3.97123 18.0495V15.8702C2.90756 15.5868 1.95724 14.9821 1.24998 14.1386C0.542717 13.2952 0.112962 12.254 0.0193699 11.1572C-0.0742226 10.0604 0.172906 8.96144 0.727029 8.01031C1.28115 7.05918 2.11527 6.30221 3.11555 5.8427C3.19629 5.80016 3.28488 5.77459 3.37587 5.76758C3.46686 5.76058 3.55832 5.77227 3.64462 5.80195C3.73092 5.83163 3.81022 5.87867 3.87766 5.94016C3.94509 6.00165 3.99921 6.0763 4.0367 6.1595C4.07419 6.24271 4.09425 6.33271 4.09563 6.42396C4.09702 6.51521 4.07971 6.60577 4.04476 6.69008C4.00982 6.77438 3.95799 6.85064 3.89245 6.91415C3.82692 6.97767 3.74908 7.02709 3.66372 7.05938C2.87484 7.41706 2.22294 8.02051 1.80552 8.77947C1.3881 9.53844 1.22758 10.4121 1.34797 11.2699C1.46836 12.1277 1.86318 12.9234 2.47341 13.5382C3.08363 14.1529 3.87646 14.5536 4.73332 14.6803C4.89395 14.703 5.04084 14.7833 5.14661 14.9063C5.25239 15.0293 5.30983 15.1866 5.30823 15.3488V16.6457L7.4207 14.8875C7.53716 14.7782 7.68894 14.7141 7.84854 14.707H9.31924C9.8546 14.708 10.3846 14.6008 10.8775 14.3917C11.3703 14.1826 11.8158 13.876 12.1871 13.4904C12.3112 13.3627 12.481 13.2896 12.659 13.2871C12.7471 13.2858 12.8347 13.302 12.9166 13.3345C12.9985 13.3671 13.0732 13.4155 13.1364 13.477C13.1996 13.5384 13.2501 13.6117 13.285 13.6927C13.3198 13.7737 13.3384 13.8607 13.3397 13.9489C13.3409 14.037 13.3248 14.1245 13.2922 14.2064C13.2596 14.2884 13.2112 14.3631 13.1498 14.4263C12.6516 14.938 12.0561 15.3448 11.3982 15.6227C10.7403 15.9005 10.0334 16.0438 9.31924 16.044H8.0892L5.06757 18.5643C4.9473 18.6639 4.79593 18.7183 4.63973 18.718V18.718Z" fill="#5811EE"/>
</svg>
