<svg width="54" height="21" viewBox="0 0 54 21" fill="none" xmlns="http://www.w3.org/2000/svg">
<path d="M15.3357 15.37C15.1795 15.3703 15.0282 15.3159 14.9079 15.2163L11.8863 12.696H10.6562C9.23786 12.696 7.87757 12.1326 6.87462 11.1296C5.87168 10.1267 5.30823 8.76639 5.30823 7.34801C5.30823 5.92963 5.87168 4.56934 6.87462 3.5664C7.87757 2.56345 9.23786 2 10.6562 2H14.6672C15.9662 2.00371 17.2195 2.48008 18.193 3.34016C19.1664 4.20024 19.7936 5.38523 19.9573 6.67386C20.1211 7.9625 19.8102 9.26668 19.0828 10.3429C18.3553 11.4191 17.261 12.1938 16.0042 12.5222V14.7015C16.0046 14.8294 15.9682 14.9547 15.8995 15.0625C15.8308 15.1703 15.7326 15.2562 15.6165 15.3099C15.5284 15.35 15.4326 15.3705 15.3357 15.37V15.37ZM10.6562 3.337C9.59245 3.337 8.57224 3.75959 7.82003 4.5118C7.06782 5.26401 6.64523 6.28422 6.64523 7.34801C6.64523 8.4118 7.06782 9.43201 7.82003 10.1842C8.57224 10.9364 9.59245 11.359 10.6562 11.359H12.1269C12.2831 11.3587 12.4345 11.4131 12.5548 11.5128L14.6672 13.2709V11.974C14.6656 11.8118 14.7231 11.6546 14.8289 11.5316C14.9346 11.4086 15.0815 11.3282 15.2422 11.3055C16.2301 11.1436 17.1217 10.6182 17.7419 9.83235C18.3622 9.04653 18.6661 8.05719 18.5941 7.0587C18.522 6.0602 18.0792 5.12474 17.3526 4.4361C16.626 3.74745 15.6682 3.35541 14.6672 3.337H10.6562Z" fill="#5811EE"/>
<path d="M13.3302 6.6795H11.9932V8.01651H13.3302V6.6795Z" fill="#5811EE"/>
<path d="M9.98773 6.6795H8.65073V8.01651H9.98773V6.6795Z" fill="#5811EE"/>
<path d="M16.6728 6.6795H15.3358V8.01651H16.6728V6.6795Z" fill="#5811EE"/>
<path d="M4.63973 20.718C4.54289 20.7186 4.44709 20.698 4.35896 20.6579C4.24292 20.6042 4.14472 20.5183 4.076 20.4105C4.00727 20.3027 3.97092 20.1774 3.97123 20.0495V17.8702C2.90756 17.5868 1.95724 16.9821 1.24998 16.1386C0.542717 15.2952 0.112962 14.254 0.0193699 13.1572C-0.0742226 12.0604 0.172906 10.9614 0.727029 10.0103C1.28115 9.05918 2.11527 8.30221 3.11555 7.8427C3.19629 7.80016 3.28488 7.77459 3.37587 7.76758C3.46686 7.76058 3.55832 7.77227 3.64462 7.80195C3.73092 7.83163 3.81022 7.87867 3.87766 7.94016C3.94509 8.00165 3.99921 8.0763 4.0367 8.1595C4.07419 8.24271 4.09425 8.33271 4.09563 8.42396C4.09702 8.51521 4.07971 8.60577 4.04476 8.69008C4.00982 8.77438 3.95799 8.85064 3.89245 8.91415C3.82692 8.97767 3.74908 9.02709 3.66372 9.05938C2.87484 9.41706 2.22294 10.0205 1.80552 10.7795C1.3881 11.5384 1.22758 12.4121 1.34797 13.2699C1.46836 14.1277 1.86318 14.9234 2.47341 15.5382C3.08363 16.1529 3.87646 16.5536 4.73332 16.6803C4.89395 16.703 5.04084 16.7833 5.14661 16.9063C5.25239 17.0293 5.30983 17.1866 5.30823 17.3488V18.6457L7.4207 16.8875C7.53716 16.7782 7.68894 16.7141 7.84854 16.707H9.31924C9.8546 16.708 10.3846 16.6008 10.8775 16.3917C11.3703 16.1826 11.8158 15.876 12.1871 15.4904C12.3112 15.3627 12.481 15.2896 12.659 15.2871C12.7471 15.2858 12.8347 15.302 12.9166 15.3345C12.9985 15.3671 13.0732 15.4155 13.1364 15.477C13.1996 15.5384 13.2501 15.6117 13.285 15.6927C13.3198 15.7737 13.3384 15.8607 13.3397 15.9489C13.3409 16.037 13.3248 16.1245 13.2922 16.2064C13.2596 16.2884 13.2112 16.3631 13.1498 16.4263C12.6516 16.938 12.0561 17.3448 11.3982 17.6227C10.7403 17.9005 10.0334 18.0438 9.31924 18.044H8.0892L5.06757 20.5643C4.9473 20.6639 4.79593 20.7183 4.63973 20.718V20.718Z" fill="#5811EE"/>
<path d="M31.0003 13.324C31.1043 13.324 31.1843 13.372 31.2403 13.468C31.3043 13.564 31.3363 13.696 31.3363 13.864C31.3363 14.184 31.2603 14.432 31.1083 14.608C30.7643 15.032 30.3883 15.38 29.9803 15.652C29.5723 15.924 29.1043 16.06 28.5763 16.06C26.9443 16.06 26.1283 14.912 26.1283 12.616C26.1283 12.264 26.1403 11.908 26.1643 11.548H25.6963C25.4563 11.548 25.2923 11.504 25.2043 11.416C25.1243 11.328 25.0843 11.188 25.0843 10.996C25.0843 10.548 25.2643 10.324 25.6243 10.324H26.3083C26.4443 9.444 26.6523 8.64 26.9323 7.912C27.2123 7.184 27.5483 6.604 27.9403 6.172C28.3403 5.74 28.7683 5.524 29.2243 5.524C29.5603 5.524 29.8243 5.672 30.0163 5.968C30.2083 6.264 30.3043 6.636 30.3043 7.084C30.3043 8.324 29.7843 9.404 28.7443 10.324H30.0883C30.2163 10.324 30.3083 10.352 30.3643 10.408C30.4203 10.464 30.4483 10.568 30.4483 10.72C30.4483 11.272 29.9963 11.548 29.0923 11.548H27.6283C27.6123 11.948 27.6043 12.26 27.6043 12.484C27.6043 13.316 27.7003 13.9 27.8923 14.236C28.0923 14.572 28.4043 14.74 28.8283 14.74C29.1723 14.74 29.4763 14.636 29.7403 14.428C30.0043 14.22 30.3163 13.908 30.6763 13.492C30.7723 13.38 30.8803 13.324 31.0003 13.324ZM28.9003 6.676C28.7803 6.676 28.6443 6.828 28.4923 7.132C28.3483 7.428 28.2083 7.844 28.0723 8.38C27.9443 8.908 27.8363 9.496 27.7483 10.144C28.2203 9.736 28.5723 9.28 28.8043 8.776C29.0443 8.264 29.1643 7.8 29.1643 7.384C29.1643 6.912 29.0763 6.676 28.9003 6.676ZM39.6745 12.352C39.6985 12.344 39.7385 12.34 39.7945 12.34C39.9145 12.34 40.0065 12.38 40.0705 12.46C40.1345 12.54 40.1665 12.648 40.1665 12.784C40.1665 13.032 40.1185 13.228 40.0225 13.372C39.9265 13.508 39.7825 13.608 39.5905 13.672C39.2225 13.792 38.8305 13.852 38.4145 13.852C38.0625 13.852 37.7305 13.804 37.4185 13.708C37.1865 14.084 36.9305 14.472 36.6505 14.872C36.3305 15.328 36.0545 15.64 35.8225 15.808C35.5985 15.976 35.3425 16.06 35.0545 16.06C34.7345 16.06 34.4905 15.936 34.3225 15.688C34.1625 15.44 34.0625 15.032 34.0225 14.464L33.9625 13.588C33.7145 14.26 33.4905 14.772 33.2905 15.124C33.0985 15.476 32.9025 15.72 32.7025 15.856C32.5105 15.992 32.2825 16.06 32.0185 16.06C31.6905 16.06 31.4305 15.932 31.2385 15.676C31.0545 15.42 30.9385 15.016 30.8905 14.464C30.7945 13.344 30.7465 12.364 30.7465 11.524V11.104C30.7545 10.84 30.8265 10.656 30.9625 10.552C31.0985 10.448 31.3025 10.396 31.5745 10.396C31.7825 10.396 31.9345 10.444 32.0305 10.54C32.1345 10.628 32.1865 10.78 32.1865 10.996C32.1865 11.916 32.2425 13.112 32.3545 14.584C32.8985 13.44 33.3985 12.248 33.8545 11.008C33.9425 10.768 34.0465 10.608 34.1665 10.528C34.2945 10.44 34.4465 10.396 34.6225 10.396C34.8385 10.396 34.9865 10.44 35.0665 10.528C35.1545 10.616 35.1985 10.772 35.1985 10.996C35.1985 11.916 35.2545 13.112 35.3665 14.584C35.8465 13.872 36.2065 13.304 36.4465 12.88C36.3265 12.648 36.2665 12.372 36.2665 12.052C36.2665 11.78 36.3265 11.516 36.4465 11.26C36.5665 11.004 36.7305 10.796 36.9385 10.636C37.1465 10.476 37.3825 10.396 37.6465 10.396C37.8785 10.396 38.0665 10.48 38.2105 10.648C38.3545 10.808 38.4265 11.044 38.4265 11.356C38.4265 11.716 38.3305 12.128 38.1385 12.592C38.4425 12.576 38.8465 12.516 39.3505 12.412L39.6745 12.352ZM44.4768 13.324C44.5808 13.324 44.6608 13.372 44.7168 13.468C44.7808 13.564 44.8128 13.696 44.8128 13.864C44.8128 14.184 44.7368 14.432 44.5848 14.608C44.2888 14.968 43.8688 15.3 43.3248 15.604C42.7888 15.908 42.2128 16.06 41.5968 16.06C40.7568 16.06 40.1048 15.832 39.6408 15.376C39.1768 14.92 38.9448 14.296 38.9448 13.504C38.9448 12.952 39.0608 12.44 39.2928 11.968C39.5248 11.488 39.8448 11.108 40.2528 10.828C40.6688 10.548 41.1368 10.408 41.6568 10.408C42.1208 10.408 42.4928 10.548 42.7728 10.828C43.0528 11.1 43.1928 11.472 43.1928 11.944C43.1928 12.496 42.9928 12.972 42.5928 13.372C42.2008 13.764 41.5328 14.076 40.5888 14.308C40.7888 14.676 41.1688 14.86 41.7288 14.86C42.0888 14.86 42.4968 14.736 42.9528 14.488C43.4168 14.232 43.8168 13.9 44.1528 13.492C44.2488 13.38 44.3568 13.324 44.4768 13.324ZM41.4528 11.584C41.1568 11.584 40.9048 11.756 40.6968 12.1C40.4968 12.444 40.3968 12.86 40.3968 13.348V13.372C40.8688 13.26 41.2408 13.092 41.5128 12.868C41.7848 12.644 41.9208 12.384 41.9208 12.088C41.9208 11.936 41.8768 11.816 41.7888 11.728C41.7088 11.632 41.5968 11.584 41.4528 11.584ZM49.1878 13.324C49.2918 13.324 49.3718 13.372 49.4278 13.468C49.4918 13.564 49.5238 13.696 49.5238 13.864C49.5238 14.184 49.4478 14.432 49.2958 14.608C48.9998 14.968 48.5798 15.3 48.0358 15.604C47.4998 15.908 46.9238 16.06 46.3078 16.06C45.4678 16.06 44.8158 15.832 44.3518 15.376C43.8878 14.92 43.6558 14.296 43.6558 13.504C43.6558 12.952 43.7718 12.44 44.0038 11.968C44.2358 11.488 44.5558 11.108 44.9638 10.828C45.3798 10.548 45.8478 10.408 46.3678 10.408C46.8318 10.408 47.2038 10.548 47.4838 10.828C47.7638 11.1 47.9038 11.472 47.9038 11.944C47.9038 12.496 47.7038 12.972 47.3038 13.372C46.9118 13.764 46.2438 14.076 45.2998 14.308C45.4998 14.676 45.8798 14.86 46.4398 14.86C46.7998 14.86 47.2078 14.736 47.6638 14.488C48.1278 14.232 48.5278 13.9 48.8638 13.492C48.9598 13.38 49.0678 13.324 49.1878 13.324ZM46.1638 11.584C45.8678 11.584 45.6158 11.756 45.4078 12.1C45.2078 12.444 45.1078 12.86 45.1078 13.348V13.372C45.5798 13.26 45.9518 13.092 46.2238 12.868C46.4958 12.644 46.6318 12.384 46.6318 12.088C46.6318 11.936 46.5878 11.816 46.4998 11.728C46.4198 11.632 46.3078 11.584 46.1638 11.584ZM50.5267 11.548C50.5107 11.948 50.5027 12.26 50.5027 12.484C50.5027 13.06 50.5307 13.512 50.5867 13.84C50.6507 14.16 50.7507 14.392 50.8867 14.536C51.0307 14.672 51.2267 14.74 51.4747 14.74C51.6027 14.74 51.7547 14.7 51.9307 14.62C52.1067 14.54 52.2667 14.436 52.4107 14.308C52.4987 14.228 52.5867 14.188 52.6747 14.188C52.7707 14.188 52.8467 14.244 52.9027 14.356C52.9667 14.46 52.9987 14.588 52.9987 14.74C52.9987 14.892 52.9667 15.04 52.9027 15.184C52.8467 15.328 52.7587 15.448 52.6387 15.544C52.2227 15.888 51.7507 16.06 51.2227 16.06C50.4627 16.06 49.9067 15.744 49.5547 15.112C49.2027 14.472 49.0267 13.64 49.0267 12.616C49.0267 12.264 49.0387 11.908 49.0627 11.548H48.5947C48.3547 11.548 48.1907 11.504 48.1027 11.416C48.0227 11.328 47.9827 11.188 47.9827 10.996C47.9827 10.548 48.1627 10.324 48.5227 10.324H49.2067C49.3427 9.444 49.5507 8.64 49.8307 7.912C50.1107 7.184 50.4467 6.604 50.8387 6.172C51.2387 5.74 51.6667 5.524 52.1227 5.524C52.4587 5.524 52.7227 5.672 52.9147 5.968C53.1067 6.264 53.2027 6.636 53.2027 7.084C53.2027 8.324 52.6827 9.404 51.6427 10.324H52.9867C53.1147 10.324 53.2067 10.352 53.2627 10.408C53.3187 10.464 53.3467 10.568 53.3467 10.72C53.3467 11.272 52.8947 11.548 51.9907 11.548H50.5267ZM51.7987 6.676C51.6787 6.676 51.5427 6.828 51.3907 7.132C51.2467 7.428 51.1067 7.844 50.9707 8.38C50.8427 8.908 50.7347 9.496 50.6467 10.144C51.1187 9.736 51.4707 9.28 51.7027 8.776C51.9427 8.264 52.0627 7.8 52.0627 7.384C52.0627 6.912 51.9747 6.676 51.7987 6.676Z" fill="#5811EE"/>
</svg>
